<svg viewBox="0 0 900 500" xmlns="http://www.w3.org/2000/svg" font-family="Arial, sans-serif">
<rect width="900" height="500" fill="white"/>
<text x="450" y="25" text-anchor="middle" font-size="18" font-weight="bold" fill="#222222">Supported-Task Accuracy: BM25 vs Dense vs Hybrid (nested 5-fold CV, benchmark v0.2)</text>
<line x1="70" y1="400" x2="870" y2="400" stroke="#DDDDDD" stroke-width="1"/>
<text x="62" y="404" text-anchor="end" font-size="11" fill="#222222">0%</text>
<line x1="70" y1="330" x2="870" y2="330" stroke="#DDDDDD" stroke-width="1"/>
<text x="62" y="334" text-anchor="end" font-size="11" fill="#222222">20%</text>
<line x1="70" y1="260" x2="870" y2="260" stroke="#DDDDDD" stroke-width="1"/>
<text x="62" y="264" text-anchor="end" font-size="11" fill="#222222">40%</text>
<line x1="70" y1="190" x2="870" y2="190" stroke="#DDDDDD" stroke-width="1"/>
<text x="62" y="194" text-anchor="end" font-size="11" fill="#222222">60%</text>
<line x1="70" y1="120" x2="870" y2="120" stroke="#DDDDDD" stroke-width="1"/>
<text x="62" y="124" text-anchor="end" font-size="11" fill="#222222">80%</text>
<line x1="70" y1="50" x2="870" y2="50" stroke="#DDDDDD" stroke-width="1"/>
<text x="62" y="54" text-anchor="end" font-size="11" fill="#222222">100%</text>
<rect x="110.0" y="136.1" width="158.7" height="263.9" fill="#4C72B0"/>
<text x="188.4" y="132.1" text-anchor="middle" font-size="10" fill="#222222">75.4</text>
<text x="203.3" y="420" text-anchor="middle" font-size="11" fill="#222222" transform="rotate(-20 203.3 420)">A0: BM25</text>
<rect x="376.7" y="146.6" width="158.7" height="253.4" fill="#DD8452"/>
<text x="455.1" y="142.6" text-anchor="middle" font-size="10" fill="#222222">72.4</text>
<text x="470.0" y="420" text-anchor="middle" font-size="11" fill="#222222" transform="rotate(-20 470.0 420)">A2: Dense</text>
<rect x="643.3" y="122.5" width="158.7" height="277.5" fill="#55A868"/>
<text x="721.7" y="118.5" text-anchor="middle" font-size="10" fill="#222222">79.3</text>
<text x="736.7" y="420" text-anchor="middle" font-size="11" fill="#222222" transform="rotate(-20 736.7 420)">A3: Hybrid</text>
</svg>