<svg viewBox="0 0 480 300" xmlns="http://www.w3.org/2000/svg" font-family="Arial, Helvetica, sans-serif">
<rect width="480" height="300" fill="white"/>
<line x1="56" y1="12" x2="56" y2="254" stroke="#DDDDDD"/><text x="56" y="271" text-anchor="middle" font-size="13">0%</text><line x1="155.5" y1="12" x2="155.5" y2="254" stroke="#DDDDDD"/><text x="155.5" y="271" text-anchor="middle" font-size="13">25%</text><line x1="255" y1="12" x2="255" y2="254" stroke="#DDDDDD"/><text x="255" y="271" text-anchor="middle" font-size="13">50%</text><line x1="354.5" y1="12" x2="354.5" y2="254" stroke="#DDDDDD"/><text x="354.5" y="271" text-anchor="middle" font-size="13">75%</text><line x1="454" y1="12" x2="454" y2="254" stroke="#DDDDDD"/><text x="454" y="271" text-anchor="middle" font-size="13">100%</text><line x1="56" y1="254" x2="454" y2="254" stroke="#DDDDDD"/><text x="50" y="258.5" text-anchor="end" font-size="13">0%</text><line x1="56" y1="193.5" x2="454" y2="193.5" stroke="#DDDDDD"/><text x="50" y="198" text-anchor="end" font-size="13">10%</text><line x1="56" y1="133" x2="454" y2="133" stroke="#DDDDDD"/><text x="50" y="137.5" text-anchor="end" font-size="13">20%</text><line x1="56" y1="72.49999999999997" x2="454" y2="72.49999999999997" stroke="#DDDDDD"/><text x="50" y="76.99999999999997" text-anchor="end" font-size="13">30%</text><line x1="56" y1="12" x2="454" y2="12" stroke="#DDDDDD"/><text x="50" y="16.5" text-anchor="end" font-size="13">40%</text><line x1="56" y1="12" x2="56" y2="254" stroke="black"/><line x1="56" y1="254" x2="454" y2="254" stroke="black"/><path d="M58.7,254.0 L61.3,254.0 L64.0,254.0 L66.6,254.0 L69.3,254.0 L71.9,254.0 L74.6,254.0 L77.2,254.0 L79.9,254.0 L82.5,254.0 L85.2,254.0 L87.8,254.0 L90.5,254.0 L93.1,254.0 L95.8,254.0 L98.5,254.0 L101.1,254.0 L103.8,254.0 L106.4,254.0 L109.1,254.0 L111.7,254.0 L114.4,254.0 L117.0,254.0 L119.7,254.0 L122.3,254.0 L125.0,254.0 L127.6,254.0 L130.3,254.0 L132.9,254.0 L135.6,254.0 L138.3,254.0 L140.9,254.0 L143.6,254.0 L146.2,254.0 L148.9,254.0 L151.5,254.0 L154.2,254.0 L156.8,254.0 L159.5,254.0 L162.1,254.0 L164.8,254.0 L167.4,254.0 L170.1,254.0 L172.7,254.0 L175.4,254.0 L178.1,254.0 L180.7,241.1 L183.4,241.4 L186.0,241.7 L188.7,241.9 L191.3,242.1 L194.0,242.4 L196.6,242.6 L199.3,242.8 L201.9,243.0 L204.6,243.2 L207.2,243.4 L209.9,233.1 L212.5,223.3 L215.2,223.8 L217.9,224.2 L220.5,215.0 L223.2,215.6 L225.8,216.2 L228.5,216.8 L231.1,217.3 L233.8,208.9 L236.4,209.5 L239.1,201.4 L241.7,193.5 L244.4,185.8 L247.0,186.8 L249.7,187.7 L252.3,188.6 L255.0,189.4 L257.7,190.3 L260.3,191.1 L263.0,191.9 L265.6,192.7 L268.3,193.5 L270.9,194.2 L273.6,195.0 L276.2,195.7 L278.9,196.4 L281.5,197.1 L284.2,197.7 L286.8,198.3 L289.5,199.0 L292.1,199.6 L294.8,200.2 L297.5,200.8 L300.1,201.4 L302.8,202.0 L305.4,202.5 L308.1,203.1 L310.7,203.6 L313.4,204.1 L316.0,198.5 L318.7,199.0 L321.3,193.5 L324.0,194.1 L326.6,188.8 L329.3,183.5 L331.9,178.4 L334.6,173.4 L337.3,168.4 L339.9,169.2 L342.6,164.4 L345.2,159.6 L347.9,160.5 L350.5,161.3 L353.2,156.8 L355.8,157.6 L358.5,153.1 L361.1,148.8 L363.8,144.5 L366.4,140.3 L369.1,136.1 L371.7,137.1 L374.4,138.0 L377.1,134.0 L379.7,130.0 L382.4,131.0 L385.0,132.0 L387.7,133.0 L390.3,134.0 L393.0,130.2 L395.6,126.4 L398.3,122.7 L400.9,123.7 L403.6,120.1 L406.2,121.1 L408.9,117.5 L411.5,118.5 L414.2,115.1 L416.9,111.6 L419.5,108.3 L422.2,104.9 L424.8,101.7 L427.5,98.5 L430.1,95.2 L432.8,92.1 L435.4,89.0 L438.1,85.9 L440.7,82.9 L443.4,79.9 L446.0,77.0 L448.7,74.1 L451.3,71.3 L454.0,68.4" fill="none" stroke="#4C72B0" stroke-width="2.2"/><text x="255" y="292" text-anchor="middle" font-size="14">Coverage (share of queries answered)</text><text x="16" y="133" text-anchor="middle" font-size="14" transform="rotate(-90 16 133)">Error rate</text></svg>