<svg viewBox="0 0 400 400" xmlns="http://www.w3.org/2000/svg" font-family="Arial, Helvetica, sans-serif">
<rect width="400" height="400" fill="white"/>
<line x1="56" y1="12" x2="56" y2="350" stroke="#DDDDDD"/><line x1="56" y1="350" x2="386" y2="350" stroke="#DDDDDD"/><text x="56" y="367" text-anchor="middle" font-size="13">0</text><text x="50" y="354.5" text-anchor="end" font-size="13">0</text><line x1="138.5" y1="12" x2="138.5" y2="350" stroke="#DDDDDD"/><line x1="56" y1="265.5" x2="386" y2="265.5" stroke="#DDDDDD"/><text x="138.5" y="367" text-anchor="middle" font-size="13">0.25</text><text x="50" y="270" text-anchor="end" font-size="13">0.25</text><line x1="221" y1="12" x2="221" y2="350" stroke="#DDDDDD"/><line x1="56" y1="181" x2="386" y2="181" stroke="#DDDDDD"/><text x="221" y="367" text-anchor="middle" font-size="13">0.5</text><text x="50" y="185.5" text-anchor="end" font-size="13">0.5</text><line x1="303.5" y1="12" x2="303.5" y2="350" stroke="#DDDDDD"/><line x1="56" y1="96.5" x2="386" y2="96.5" stroke="#DDDDDD"/><text x="303.5" y="367" text-anchor="middle" font-size="13">0.75</text><text x="50" y="101" text-anchor="end" font-size="13">0.75</text><line x1="386" y1="12" x2="386" y2="350" stroke="#DDDDDD"/><line x1="56" y1="12" x2="386" y2="12" stroke="#DDDDDD"/><text x="386" y="367" text-anchor="middle" font-size="13">1</text><text x="50" y="16.5" text-anchor="end" font-size="13">1</text><line x1="56" y1="12" x2="56" y2="350" stroke="black"/><line x1="56" y1="350" x2="386" y2="350" stroke="black"/><line x1="56" y1="350" x2="386" y2="12" stroke="#888888" stroke-dasharray="5,4"/><text x="221" y="390" text-anchor="middle" font-size="14">Mean confidence in bin</text><text x="16" y="181" text-anchor="middle" font-size="14" transform="rotate(-90 16 181)">Accuracy in bin</text><circle cx="56.0" cy="350.0" r="4.1" fill="#C44E52" opacity="0.8"/><circle cx="244.1" cy="265.5" r="4.1" fill="#C44E52" opacity="0.8"/><circle cx="271.3" cy="298.0" r="5.4" fill="#C44E52" opacity="0.8"/><circle cx="298.2" cy="214.8" r="4.3" fill="#C44E52" opacity="0.8"/><circle cx="334.3" cy="350.0" r="3.9" fill="#C44E52" opacity="0.8"/><circle cx="384.0" cy="114.1" r="10.3" fill="#C44E52" opacity="0.8"/><circle cx="56.0" cy="307.8" r="4.8" fill="#55A868" opacity="0.8"/><circle cx="100.1" cy="199.8" r="4.9" fill="#55A868" opacity="0.8"/><circle cx="137.9" cy="293.7" r="5.3" fill="#55A868" opacity="0.8"/><circle cx="166.0" cy="350.0" r="4.5" fill="#55A868" opacity="0.8"/><circle cx="188.0" cy="12.0" r="3.3" fill="#55A868" opacity="0.8"/><circle cx="221.0" cy="237.3" r="3.9" fill="#55A868" opacity="0.8"/><circle cx="254.0" cy="350.0" r="3.3" fill="#55A868" opacity="0.8"/><circle cx="301.3" cy="99.5" r="9.9" fill="#55A868" opacity="0.8"/><circle cx="70" cy="26" r="6" fill="#C44E52"/><text x="82" y="31" font-size="13">shipped (ECE 0.323)</text><circle cx="70" cy="46" r="6" fill="#55A868"/><text x="82" y="51" font-size="13">recalibrated (ECE 0.069)</text></svg>